<svg xmlns="http://www.w3.org/2000/svg" viewBox="0 0 75.000 84.000"><path d="M 37.493 83.000 C 33.762 83.000, 1.000 82.697, 1.000 72.004 L 1.000 12.316 C 1.000 1.320, 33.762 1.000, 37.493 1.000 C 41.216 1.000, 74.000 1.320, 74.000 12.316 L 74.000 72.004 C 74.000 82.697, 41.238 83.000, 37.493 83.000 L 37.493 83.000" fill="#FFFFFF" stroke="none" stroke-width="1"/><path d="M 37.492 1.999 C 49.852 1.999, 73.005 4.158, 73.005 12.323 L 73.005 71.996 C 73.005 80.002, 49.770 82.001, 37.492 82.001 C 25.207 82.001, 1.995 80.002, 1.995 71.996 L 1.995 12.323 C 1.995 4.158, 25.230 1.999, 37.492 1.999 L 37.492 1.999 M 37.492 0.000 C 31.230 0.000, 0.000 0.596, 0.000 12.323 L 0.000 71.996 C 0.000 83.462, 31.230 84.000, 37.492 84.000 C 43.755 84.000, 75.000 83.420, 75.000 71.996 L 75.000 12.323 C 75.000 0.596, 43.867 0.000, 37.492 0.000 L 37.492 0.000" fill="#FFFFFF" stroke="none" stroke-width="1"/><path d="M 73.000 12.320 C 73.000 4.160, 49.854 2.000, 37.493 2.000 C 25.132 2.000, 2.000 4.160, 2.000 12.320 L 2.000 72.000 C 2.000 80.000, 25.231 82.000, 37.493 82.000 C 49.755 82.000, 73.000 80.000, 73.000 72.000 L 73.000 12.320 L 73.000 12.320 M 69.010 52.320 C 69.010 52.680, 67.519 54.480, 60.682 56.136 C 53.056 57.768, 45.282 58.536, 37.493 58.424 C 29.676 58.528, 21.866 57.752, 14.219 56.096 C 7.382 54.440, 5.990 52.640, 5.990 52.280 L 5.990 37.600 C 13.126 41.496, 28.419 42.680, 37.592 42.680 C 46.758 42.680, 62.073 41.496, 69.209 37.600 L 69.010 52.320 L 69.010 52.320 M 69.010 32.680 C 69.010 33.040, 67.519 34.856, 60.682 36.496 C 53.056 38.128, 45.282 38.896, 37.493 38.776 C 29.676 38.888, 21.866 38.104, 14.219 36.456 C 7.382 34.816, 5.990 33.000, 5.990 32.640 L 5.990 17.400 C 13.126 21.400, 28.419 22.616, 37.592 22.616 C 46.758 22.616, 62.073 21.416, 69.209 17.400 L 69.010 32.680 L 69.010 32.680 M 14.240 8.296 C 21.880 6.632, 29.676 5.864, 37.493 6.000 C 45.310 5.896, 53.120 6.704, 60.760 8.400 C 67.796 10.000, 69.109 12.000, 69.109 12.320 C 69.109 12.640, 67.696 14.600, 60.760 16.320 C 53.120 18.016, 45.310 18.824, 37.493 18.720 C 29.676 18.832, 21.873 18.032, 14.240 16.336 C 7.304 14.600, 5.990 12.720, 5.990 12.320 C 5.990 11.920, 7.403 10.016, 14.340 8.320 L 14.240 8.296 L 14.240 8.296 M 60.781 75.776 C 53.127 77.432, 45.317 78.208, 37.493 78.104 C 29.676 78.208, 21.866 77.432, 14.219 75.776 C 7.382 74.136, 5.990 72.320, 5.990 72.000 L 5.990 57.240 C 13.126 61.136, 28.419 62.320, 37.592 62.320 C 46.758 62.320, 62.073 61.136, 69.209 57.240 L 69.209 72.000 C 69.209 72.360, 67.718 74.176, 60.880 75.816" fill="#2d5967" stroke="none" stroke-width="1"/></svg>