<svg xmlns="http://www.w3.org/2000/svg" viewBox="0 0 48 48">
  <!-- Apache Tomcat — orange cat icon -->
  <!-- Ears -->
  <polygon points="9,18 14,30 6,30" fill="#E65100"/>
  <polygon points="39,18 42,30 34,30" fill="#E65100"/>
  <polygon points="9.5,19.5 13,28 7,28" fill="#FFAB40"/>
  <polygon points="38.5,19.5 41,28 35,28" fill="#FFAB40"/>
  <!-- Head -->
  <circle cx="24" cy="29" r="14" fill="#E65100"/>
  <!-- Eyes -->
  <ellipse cx="19.5" cy="27" rx="3" ry="2.5" fill="white"/>
  <ellipse cx="28.5" cy="27" rx="3" ry="2.5" fill="white"/>
  <ellipse cx="20.2" cy="27" rx="1.8" ry="2" fill="#1A1A1A"/>
  <ellipse cx="29.2" cy="27" rx="1.8" ry="2" fill="#1A1A1A"/>
  <!-- Nose -->
  <ellipse cx="24" cy="33" rx="2" ry="1.2" fill="#FFAB40"/>
  <!-- Mouth -->
  <path d="M21.5 35 Q24 37.5 26.5 35" stroke="white" fill="none" stroke-width="1.3"/>
  <!-- Whiskers -->
  <line x1="9" y1="31" x2="19" y2="33" stroke="white" stroke-width="0.9"/>
  <line x1="9" y1="34" x2="19" y2="34" stroke="white" stroke-width="0.9"/>
  <line x1="29" y1="33" x2="39" y2="31" stroke="white" stroke-width="0.9"/>
  <line x1="29" y1="34" x2="39" y2="34" stroke="white" stroke-width="0.9"/>
</svg>
